# xmcd
#
# Track frame offsets: 
#        150
#        3440
#        25165
#        52000
#        81139
#        99260
#        122320
#        145375
#        161618
#
# Disc length: 2978 seconds
#
# Revision: 0
# Processed by: cddbd v1.5.2PL0 Copyright (c) Steve Scherf et al.
# Submitted via: ExactAudioCopy v0.99pb4
#
DISCID=660ba009
DTITLE=Iron Maiden - Flight 666 - Original Soundtrack [CD 1)
DYEAR=2009
DGENRE=Metal
TTITLE0=Churchill's Speech (Mumbai)
TTITLE1=Aces High (Mumbai)
TTITLE2=2 Minutes to Midnight (Melbourne)
TTITLE3=Revelations (Sydney)
TTITLE4=The Trooper (Tokyo)
TTITLE5=Wasted Years (Monterrey)
TTITLE6=The Number Of The Beast (Los Angeles)
TTITLE7=Can I Play With Madness (Mexico City)
TTITLE8=Rime of the Ancient Mariner (New Jersey)
EXTD=
EXTT0=
EXTT1=
EXTT2=
EXTT3=
EXTT4=
EXTT5=
EXTT6=
EXTT7=
EXTT8=
PLAYORDER=
